<svg width="70" height="77" viewBox="0 0 70 77" fill="none" xmlns="http://www.w3.org/2000/svg">
<g clip-path="url(#clip0_501_164)">
<path d="M38.4865 28.1153L37.6288 29.0065C37.4258 29.2175 37.4258 29.5595 37.6288 29.7704L44.3491 36.7532H29.5582C29.2711 36.7532 29.0383 36.995 29.0383 37.2933V38.5537C29.0383 38.852 29.2711 39.0938 29.5582 39.0938H44.3491L37.6288 46.0766C37.4258 46.2875 37.4258 46.6295 37.6288 46.8405L38.4865 47.7317C38.6895 47.9426 39.0187 47.9426 39.2217 47.7317L48.2936 38.3055C48.4966 38.0945 48.4966 37.7525 48.2936 37.5416L39.2217 28.1153C39.0187 27.9043 38.6895 27.9043 38.4865 28.1153Z" fill="#C1B9BC"/>
</g>
<mask id="path-2-inside-1_501_164" fill="white">
<path fill-rule="evenodd" clip-rule="evenodd" d="M37.6716 76.0936C37.546 76.0949 37.4202 76.0956 37.2943 76.0956C16.6972 76.0956 0 59.061 0 38.0478C0 17.0346 16.6972 0 37.2943 0C37.4202 0 37.546 0.00063635 37.6716 0.00190607V2.42253e-05H110V76.0956H37.6716V76.0936Z"/>
</mask>
<path d="M37.6716 76.0936H40.6716V73.0632L37.6413 73.0938L37.6716 76.0936ZM37.6716 0.00190607L37.6413 3.00175L40.6716 3.03239V0.00190607H37.6716ZM37.6716 2.42253e-05V-2.99998H34.6716V2.42253e-05H37.6716ZM110 2.42253e-05H113V-2.99998H110V2.42253e-05ZM110 76.0956V79.0956H113V76.0956H110ZM37.6716 76.0956H34.6716V79.0956H37.6716V76.0956ZM37.6413 73.0938C37.5257 73.095 37.4101 73.0956 37.2943 73.0956V79.0956C37.4304 79.0956 37.5662 79.0949 37.7018 79.0935L37.6413 73.0938ZM37.2943 73.0956C18.4104 73.0956 3 57.461 3 38.0478H-3C-3 60.661 14.9841 79.0956 37.2943 79.0956V73.0956ZM3 38.0478C3 18.6346 18.4104 3 37.2943 3V-3C14.9841 -3 -3 15.4346 -3 38.0478H3ZM37.2943 3C37.4101 3 37.5258 3.00059 37.6413 3.00175L37.7019 -2.99794C37.5662 -2.99931 37.4303 -3 37.2943 -3V3ZM40.6716 0.00190607V2.42253e-05H34.6716V0.00190607H40.6716ZM37.6716 3.00002H110V-2.99998H37.6716V3.00002ZM107 2.42253e-05V76.0956H113V2.42253e-05H107ZM110 73.0956H37.6716V79.0956H110V73.0956ZM40.6716 76.0956V76.0936H34.6716V76.0956H40.6716Z" fill="#C1B9BC" mask="url(#path-2-inside-1_501_164)"/>
<defs>
<clipPath id="clip0_501_164">
<rect width="19.4075" height="23.0464" fill="white" transform="translate(29.0383 26.4003)"/>
</clipPath>
</defs>
</svg>
